; NON-PLATED HOLES START AT T1
; THROUGH (PLATED) HOLES START AT T100
M48
INCH
T1C0.125984
T100C0.030000
T101C0.042000
T102C0.051139
T103C0.035433
T104C0.038779
T105C0.035000
%
T1
X001778Y020684
X025778Y001684
X001778Y001684
X025778Y020684
T100
X003778Y001684
X003778Y000684
X007778Y007684
X009778Y007684
X008778Y003684
X009778Y003684
T101
X005778Y001684
X007778Y001684
X006778Y001684
T102
X025699Y004410
X025699Y008544
X025699Y005788
X001778Y005928
X001778Y007306
X001778Y004550
X001778Y008684
X025699Y007166
T103
X015778Y009684
X018778Y009684
T104
X012786Y011827
X007788Y021684
X013779Y011827
X014783Y021684
X005791Y021684
X008781Y021684
X021778Y021684
X017784Y011827
X009785Y011827
X018777Y021684
X018777Y011827
X004787Y021684
X004787Y011827
X022781Y021684
X019781Y021684
X015786Y011827
X006784Y021684
X010789Y021684
X020774Y021684
X019781Y011827
X010789Y011827
X022781Y011827
X006784Y011827
X014783Y011827
X020774Y011827
X009785Y021684
X012786Y021684
X016780Y011827
X011782Y021684
X007788Y011827
X011782Y011827
X015786Y021684
X013779Y021684
X016780Y021684
X021778Y011827
X017784Y021684
X005791Y011827
X008781Y011827
T105
X005778Y007684
X017778Y003684
X019778Y002684
X005778Y009684
X014778Y007684
X007778Y005684
X011778Y006684
X022778Y002684
X006778Y007684
X022778Y004684
X009778Y009684
X012778Y004684
X010778Y002684
X018778Y003684
X019778Y004684
X011778Y005684
X003778Y002684
X016778Y003684
X017778Y005684
X014778Y003684
X005778Y004684
X022778Y006684
X003778Y007684
X017778Y007684
X003778Y008684
X019778Y006684
X007778Y004684
X004778Y007684
X003778Y006684
X022778Y009684
X006778Y004684
X011778Y010684
X012778Y008684
X016778Y007684
X016778Y005684
X014778Y002684
X019778Y009684
X018778Y007684
T00
M30
