G04 MADE WITH FRITZING*
G04 WWW.FRITZING.ORG*
G04 DOUBLE SIDED*
G04 HOLES PLATED*
G04 CONTOUR ON CENTER OF CONTOUR VECTOR*
%ASAXBY*%
%FSLAX23Y23*%
%MOIN*%
%OFA0B0*%
%SFA1.0B1.0*%
%ADD10C,0.074000*%
%ADD11C,0.075000*%
%ADD12C,0.071828*%
%ADD13C,0.070000*%
%ADD14C,0.082000*%
%ADD15C,0.076139*%
%ADD16R,0.075000X0.075000*%
%ADD17R,0.082000X0.082000*%
%ADD18C,0.024000*%
%ADD19R,0.001000X0.001000*%
%LNCOPPER1*%
G90*
G70*
G54D10*
X1878Y968D03*
X1578Y968D03*
X1878Y968D03*
X1578Y968D03*
G54D11*
X1978Y968D03*
X2278Y968D03*
X1978Y668D03*
X2278Y668D03*
X1978Y468D03*
X2278Y468D03*
X1978Y268D03*
X2278Y268D03*
G54D12*
X479Y1183D03*
X579Y1183D03*
X678Y1183D03*
X779Y1183D03*
X878Y1183D03*
X979Y1183D03*
X1079Y1183D03*
X1178Y1183D03*
X1279Y1183D03*
X1378Y1183D03*
X1478Y1183D03*
X1579Y1183D03*
X1678Y1183D03*
X1778Y1183D03*
X1878Y1183D03*
X1978Y1183D03*
X2077Y1183D03*
X2178Y1183D03*
X2278Y1183D03*
X2278Y2168D03*
X2178Y2168D03*
X2077Y2168D03*
X1978Y2168D03*
X1878Y2168D03*
X1778Y2168D03*
X1678Y2168D03*
X1579Y2168D03*
X1478Y2168D03*
X1378Y2168D03*
X1279Y2168D03*
X1178Y2168D03*
X1079Y2168D03*
X979Y2168D03*
X878Y2168D03*
X779Y2168D03*
X678Y2168D03*
X579Y2168D03*
X479Y2168D03*
G54D13*
X878Y368D03*
X978Y368D03*
X378Y168D03*
X378Y68D03*
G54D14*
X778Y168D03*
X678Y168D03*
X578Y168D03*
G54D11*
X1678Y368D03*
X1778Y368D03*
X1878Y368D03*
X1678Y768D03*
X1778Y768D03*
X1878Y768D03*
X578Y468D03*
X678Y468D03*
X778Y468D03*
X478Y768D03*
X578Y768D03*
X678Y768D03*
G54D13*
X778Y768D03*
X978Y768D03*
G54D15*
X178Y868D03*
X178Y731D03*
X178Y593D03*
X178Y455D03*
X2570Y441D03*
X2570Y579D03*
X2570Y717D03*
X2570Y854D03*
G54D11*
X778Y568D03*
X1178Y568D03*
X378Y268D03*
X378Y668D03*
X1478Y268D03*
X1078Y268D03*
X1478Y368D03*
X1478Y768D03*
X1678Y568D03*
X1778Y568D03*
X378Y768D03*
X378Y868D03*
X1178Y1068D03*
X1178Y668D03*
X578Y968D03*
X978Y968D03*
X1278Y868D03*
X1278Y468D03*
G54D16*
X1978Y968D03*
G54D17*
X778Y168D03*
G54D18*
X778Y69D02*
X778Y147D01*
D02*
X393Y69D02*
X478Y69D01*
D02*
X478Y69D02*
X778Y69D01*
D02*
X77Y769D02*
X160Y850D01*
D02*
X279Y269D02*
X77Y369D01*
D02*
X279Y169D02*
X279Y269D01*
D02*
X878Y269D02*
X678Y269D01*
D02*
X2478Y269D02*
X2476Y269D01*
D02*
X778Y69D02*
X2278Y69D01*
D02*
X2577Y370D02*
X2572Y416D01*
D02*
X2476Y269D02*
X2577Y370D01*
D02*
X2278Y69D02*
X2478Y269D01*
D02*
X778Y147D02*
X778Y69D01*
D02*
X967Y358D02*
X878Y269D01*
D02*
X678Y269D02*
X593Y183D01*
D02*
X279Y768D02*
X202Y740D01*
D02*
X278Y1169D02*
X279Y768D01*
D02*
X478Y1369D02*
X278Y1169D01*
D02*
X2277Y1369D02*
X478Y1369D01*
D02*
X2678Y870D02*
X2277Y1369D01*
D02*
X2678Y668D02*
X2678Y870D01*
D02*
X2590Y595D02*
X2678Y668D01*
D02*
X77Y369D02*
X77Y769D01*
D02*
X367Y79D02*
X279Y169D01*
D02*
X1377Y369D02*
X993Y368D01*
D02*
X1577Y868D02*
X1577Y569D01*
D02*
X1577Y569D02*
X1377Y369D01*
D02*
X1578Y951D02*
X1577Y868D01*
D02*
X1978Y968D02*
X1978Y968D01*
D02*
X1978Y968D02*
X1896Y968D01*
D02*
X2278Y1168D02*
X2278Y1168D01*
D02*
X2278Y1168D02*
X2278Y986D01*
D02*
X1078Y868D02*
X1078Y768D01*
D02*
X1078Y768D02*
X1165Y681D01*
D02*
X978Y968D02*
X1078Y868D01*
D02*
X1778Y751D02*
X1778Y586D01*
D02*
X665Y756D02*
X478Y569D01*
D02*
X478Y569D02*
X478Y469D01*
D02*
X478Y469D02*
X578Y369D01*
D02*
X578Y369D02*
X678Y369D01*
D02*
X678Y369D02*
X765Y456D01*
D02*
X1178Y967D02*
X1265Y881D01*
D02*
X1376Y568D02*
X1278Y468D01*
D02*
X2379Y568D02*
X2178Y569D01*
D02*
X2178Y569D02*
X1993Y661D01*
D02*
X2550Y701D02*
X2379Y568D01*
D02*
X1376Y870D02*
X1376Y769D01*
D02*
X1376Y769D02*
X1376Y668D01*
D02*
X1279Y1183D02*
X1272Y995D01*
D02*
X1272Y995D02*
X1376Y870D01*
D02*
X1376Y668D02*
X1376Y568D01*
D02*
X1178Y1051D02*
X1178Y967D01*
D02*
X1279Y1183D02*
X1277Y1168D01*
D02*
X2178Y967D02*
X2078Y1068D01*
D02*
X2078Y1068D02*
X1677Y1068D01*
D02*
X1677Y1068D02*
X1590Y981D01*
D02*
X2260Y968D02*
X2178Y967D01*
D02*
X1678Y368D02*
X1493Y276D01*
D02*
X978Y269D02*
X1060Y269D01*
D02*
X878Y169D02*
X978Y269D01*
D02*
X778Y168D02*
X878Y169D01*
D02*
X1779Y269D02*
X1690Y356D01*
D02*
X1960Y268D02*
X1779Y269D01*
D02*
X1577Y469D02*
X1490Y381D01*
D02*
X1677Y469D02*
X1577Y469D01*
D02*
X1765Y381D02*
X1677Y469D01*
D02*
X1477Y870D02*
X1478Y786D01*
D02*
X1376Y967D02*
X1477Y870D01*
D02*
X1378Y1163D02*
X1376Y967D01*
D02*
X1686Y784D02*
X1779Y968D01*
D02*
X1779Y968D02*
X1860Y968D01*
D02*
X478Y868D02*
X395Y868D01*
D02*
X565Y781D02*
X478Y868D01*
D02*
X1178Y651D02*
X1178Y586D01*
D02*
X1078Y1068D02*
X678Y1068D01*
D02*
X678Y1068D02*
X590Y981D01*
D02*
X1165Y1168D02*
X1078Y1068D01*
D02*
X1279Y467D02*
X1279Y467D01*
D02*
X1078Y467D02*
X1279Y467D01*
D02*
X977Y568D02*
X1078Y467D01*
D02*
X795Y568D02*
X977Y568D01*
D02*
X361Y662D02*
X202Y602D01*
D02*
X279Y768D02*
X202Y740D01*
D02*
X360Y768D02*
X279Y768D01*
D02*
X479Y1163D02*
X478Y968D01*
D02*
X478Y968D02*
X578Y868D01*
D02*
X578Y868D02*
X678Y868D01*
D02*
X678Y868D02*
X778Y968D01*
D02*
X778Y968D02*
X960Y968D01*
D02*
X778Y569D02*
X778Y569D01*
D02*
X678Y569D02*
X778Y569D01*
D02*
X590Y481D02*
X678Y569D01*
G54D19*
X139Y908D02*
X218Y908D01*
X139Y907D02*
X218Y907D01*
X139Y906D02*
X218Y906D01*
X139Y905D02*
X218Y905D01*
X139Y904D02*
X218Y904D01*
X139Y903D02*
X218Y903D01*
X139Y902D02*
X218Y902D01*
X139Y901D02*
X218Y901D01*
X139Y900D02*
X218Y900D01*
X139Y899D02*
X218Y899D01*
X139Y898D02*
X218Y898D01*
X139Y897D02*
X218Y897D01*
X139Y896D02*
X218Y896D01*
X139Y895D02*
X218Y895D01*
X139Y894D02*
X218Y894D01*
X139Y893D02*
X218Y893D01*
X139Y892D02*
X174Y892D01*
X183Y892D02*
X218Y892D01*
X139Y891D02*
X170Y891D01*
X186Y891D02*
X218Y891D01*
X139Y890D02*
X168Y890D01*
X189Y890D02*
X218Y890D01*
X139Y889D02*
X166Y889D01*
X191Y889D02*
X218Y889D01*
X139Y888D02*
X164Y888D01*
X192Y888D02*
X218Y888D01*
X139Y887D02*
X163Y887D01*
X194Y887D02*
X218Y887D01*
X139Y886D02*
X162Y886D01*
X195Y886D02*
X218Y886D01*
X139Y885D02*
X161Y885D01*
X196Y885D02*
X218Y885D01*
X139Y884D02*
X160Y884D01*
X197Y884D02*
X218Y884D01*
X139Y883D02*
X159Y883D01*
X198Y883D02*
X218Y883D01*
X139Y882D02*
X158Y882D01*
X198Y882D02*
X218Y882D01*
X139Y881D02*
X158Y881D01*
X199Y881D02*
X218Y881D01*
X139Y880D02*
X157Y880D01*
X199Y880D02*
X218Y880D01*
X139Y879D02*
X157Y879D01*
X200Y879D02*
X218Y879D01*
X139Y878D02*
X156Y878D01*
X200Y878D02*
X218Y878D01*
X139Y877D02*
X156Y877D01*
X201Y877D02*
X218Y877D01*
X139Y876D02*
X155Y876D01*
X201Y876D02*
X218Y876D01*
X139Y875D02*
X155Y875D01*
X201Y875D02*
X218Y875D01*
X139Y874D02*
X155Y874D01*
X202Y874D02*
X218Y874D01*
X139Y873D02*
X155Y873D01*
X202Y873D02*
X218Y873D01*
X139Y872D02*
X154Y872D01*
X202Y872D02*
X218Y872D01*
X139Y871D02*
X154Y871D01*
X202Y871D02*
X218Y871D01*
X139Y870D02*
X154Y870D01*
X202Y870D02*
X218Y870D01*
X139Y869D02*
X154Y869D01*
X202Y869D02*
X218Y869D01*
X139Y868D02*
X154Y868D01*
X202Y868D02*
X218Y868D01*
X139Y867D02*
X154Y867D01*
X202Y867D02*
X218Y867D01*
X139Y866D02*
X154Y866D01*
X202Y866D02*
X218Y866D01*
X139Y865D02*
X155Y865D01*
X202Y865D02*
X218Y865D01*
X139Y864D02*
X155Y864D01*
X202Y864D02*
X218Y864D01*
X139Y863D02*
X155Y863D01*
X202Y863D02*
X218Y863D01*
X139Y862D02*
X155Y862D01*
X201Y862D02*
X218Y862D01*
X139Y861D02*
X156Y861D01*
X201Y861D02*
X218Y861D01*
X139Y860D02*
X156Y860D01*
X201Y860D02*
X218Y860D01*
X139Y859D02*
X156Y859D01*
X200Y859D02*
X218Y859D01*
X139Y858D02*
X157Y858D01*
X200Y858D02*
X218Y858D01*
X139Y857D02*
X157Y857D01*
X199Y857D02*
X218Y857D01*
X139Y856D02*
X158Y856D01*
X199Y856D02*
X218Y856D01*
X139Y855D02*
X159Y855D01*
X198Y855D02*
X218Y855D01*
X139Y854D02*
X159Y854D01*
X197Y854D02*
X218Y854D01*
X139Y853D02*
X160Y853D01*
X196Y853D02*
X218Y853D01*
X139Y852D02*
X161Y852D01*
X195Y852D02*
X218Y852D01*
X139Y851D02*
X162Y851D01*
X194Y851D02*
X218Y851D01*
X139Y850D02*
X164Y850D01*
X193Y850D02*
X218Y850D01*
X139Y849D02*
X165Y849D01*
X192Y849D02*
X218Y849D01*
X139Y848D02*
X167Y848D01*
X190Y848D02*
X218Y848D01*
X139Y847D02*
X169Y847D01*
X188Y847D02*
X218Y847D01*
X139Y846D02*
X172Y846D01*
X185Y846D02*
X218Y846D01*
X139Y845D02*
X218Y845D01*
X139Y844D02*
X218Y844D01*
X139Y843D02*
X218Y843D01*
X139Y842D02*
X218Y842D01*
X139Y841D02*
X218Y841D01*
X139Y840D02*
X218Y840D01*
X139Y839D02*
X218Y839D01*
X139Y838D02*
X218Y838D01*
X139Y837D02*
X218Y837D01*
X139Y836D02*
X218Y836D01*
X139Y835D02*
X218Y835D01*
X139Y834D02*
X218Y834D01*
X139Y833D02*
X218Y833D01*
X139Y832D02*
X218Y832D01*
X139Y831D02*
X218Y831D01*
X139Y830D02*
X218Y830D01*
X139Y829D02*
X218Y829D01*
X2531Y481D02*
X2610Y481D01*
X2531Y480D02*
X2610Y480D01*
X2531Y479D02*
X2610Y479D01*
X2531Y478D02*
X2610Y478D01*
X2531Y477D02*
X2610Y477D01*
X2531Y476D02*
X2610Y476D01*
X2531Y475D02*
X2610Y475D01*
X2531Y474D02*
X2610Y474D01*
X2531Y473D02*
X2610Y473D01*
X2531Y472D02*
X2610Y472D01*
X2531Y471D02*
X2610Y471D01*
X2531Y470D02*
X2610Y470D01*
X2531Y469D02*
X2610Y469D01*
X2531Y468D02*
X2610Y468D01*
X2531Y467D02*
X2610Y467D01*
X2531Y466D02*
X2610Y466D01*
X2531Y465D02*
X2569Y465D01*
X2572Y465D02*
X2610Y465D01*
X2531Y464D02*
X2563Y464D01*
X2577Y464D02*
X2610Y464D01*
X2531Y463D02*
X2560Y463D01*
X2580Y463D02*
X2610Y463D01*
X2531Y462D02*
X2558Y462D01*
X2582Y462D02*
X2610Y462D01*
X2531Y461D02*
X2557Y461D01*
X2584Y461D02*
X2610Y461D01*
X2531Y460D02*
X2555Y460D01*
X2585Y460D02*
X2610Y460D01*
X2531Y459D02*
X2554Y459D01*
X2586Y459D02*
X2610Y459D01*
X2531Y458D02*
X2553Y458D01*
X2588Y458D02*
X2610Y458D01*
X2531Y457D02*
X2552Y457D01*
X2588Y457D02*
X2610Y457D01*
X2531Y456D02*
X2551Y456D01*
X2589Y456D02*
X2610Y456D01*
X2531Y455D02*
X2551Y455D01*
X2590Y455D02*
X2610Y455D01*
X2531Y454D02*
X2550Y454D01*
X2591Y454D02*
X2610Y454D01*
X2531Y453D02*
X2549Y453D01*
X2591Y453D02*
X2610Y453D01*
X2531Y452D02*
X2549Y452D01*
X2592Y452D02*
X2610Y452D01*
X2531Y451D02*
X2548Y451D01*
X2592Y451D02*
X2610Y451D01*
X2531Y450D02*
X2548Y450D01*
X2593Y450D02*
X2610Y450D01*
X2531Y449D02*
X2548Y449D01*
X2593Y449D02*
X2610Y449D01*
X2531Y448D02*
X2547Y448D01*
X2593Y448D02*
X2610Y448D01*
X2531Y447D02*
X2547Y447D01*
X2594Y447D02*
X2610Y447D01*
X2531Y446D02*
X2547Y446D01*
X2594Y446D02*
X2610Y446D01*
X2531Y445D02*
X2546Y445D01*
X2594Y445D02*
X2610Y445D01*
X2531Y444D02*
X2546Y444D01*
X2594Y444D02*
X2610Y444D01*
X2531Y443D02*
X2546Y443D01*
X2594Y443D02*
X2610Y443D01*
X2531Y442D02*
X2546Y442D01*
X2594Y442D02*
X2610Y442D01*
X2531Y441D02*
X2546Y441D01*
X2594Y441D02*
X2610Y441D01*
X2531Y440D02*
X2546Y440D01*
X2594Y440D02*
X2610Y440D01*
X2531Y439D02*
X2546Y439D01*
X2594Y439D02*
X2610Y439D01*
X2531Y438D02*
X2546Y438D01*
X2594Y438D02*
X2610Y438D01*
X2531Y437D02*
X2547Y437D01*
X2594Y437D02*
X2610Y437D01*
X2531Y436D02*
X2547Y436D01*
X2594Y436D02*
X2610Y436D01*
X2531Y435D02*
X2547Y435D01*
X2593Y435D02*
X2610Y435D01*
X2531Y434D02*
X2547Y434D01*
X2593Y434D02*
X2610Y434D01*
X2531Y433D02*
X2548Y433D01*
X2593Y433D02*
X2610Y433D01*
X2531Y432D02*
X2548Y432D01*
X2592Y432D02*
X2610Y432D01*
X2531Y431D02*
X2549Y431D01*
X2592Y431D02*
X2610Y431D01*
X2531Y430D02*
X2549Y430D01*
X2591Y430D02*
X2610Y430D01*
X2531Y429D02*
X2550Y429D01*
X2591Y429D02*
X2610Y429D01*
X2531Y428D02*
X2550Y428D01*
X2590Y428D02*
X2610Y428D01*
X2531Y427D02*
X2551Y427D01*
X2589Y427D02*
X2610Y427D01*
X2531Y426D02*
X2552Y426D01*
X2589Y426D02*
X2610Y426D01*
X2531Y425D02*
X2553Y425D01*
X2588Y425D02*
X2610Y425D01*
X2531Y424D02*
X2554Y424D01*
X2587Y424D02*
X2610Y424D01*
X2531Y423D02*
X2555Y423D01*
X2585Y423D02*
X2610Y423D01*
X2531Y422D02*
X2556Y422D01*
X2584Y422D02*
X2610Y422D01*
X2531Y421D02*
X2558Y421D01*
X2582Y421D02*
X2610Y421D01*
X2531Y420D02*
X2560Y420D01*
X2581Y420D02*
X2610Y420D01*
X2531Y419D02*
X2563Y419D01*
X2578Y419D02*
X2610Y419D01*
X2531Y418D02*
X2567Y418D01*
X2573Y418D02*
X2610Y418D01*
X2531Y417D02*
X2610Y417D01*
X2531Y416D02*
X2610Y416D01*
X2531Y415D02*
X2610Y415D01*
X2531Y414D02*
X2610Y414D01*
X2531Y413D02*
X2610Y413D01*
X2531Y412D02*
X2610Y412D01*
X2531Y411D02*
X2610Y411D01*
X2531Y410D02*
X2610Y410D01*
X2531Y409D02*
X2610Y409D01*
X2531Y408D02*
X2610Y408D01*
X2531Y407D02*
X2610Y407D01*
X2531Y406D02*
X2610Y406D01*
X2531Y405D02*
X2610Y405D01*
X2531Y404D02*
X2610Y404D01*
X2531Y403D02*
X2610Y403D01*
X2531Y402D02*
X2610Y402D01*
D02*
G04 End of Copper1*
M02*